HIERARCHY
ROOT Hips
{
	OFFSET 0.000000 100.481300 0.000000
	CHANNELS 6 Xposition Yposition Zposition Xrotation Yrotation Zrotation
	JOINT Spine
	{
		OFFSET -0.279200 12.230698 -2.892100
		CHANNELS 3 Xrotation Yrotation Zrotation
		JOINT Spine1
		{
			OFFSET -0.325700 14.269203 -3.374200
			CHANNELS 3 Xrotation Yrotation Zrotation
			JOINT Spine2
			{
				OFFSET -0.372300 16.307602 -0.352600
				CHANNELS 3 Xrotation Yrotation Zrotation
				JOINT Neck
				{
					OFFSET -0.418800 17.814194 8.416900
					CHANNELS 3 Xrotation Yrotation Zrotation
					JOINT Head
					{
						OFFSET 0.000000 7.031097 3.806800
						CHANNELS 3 Xrotation Yrotation Zrotation
						JOINT HeadTop_End
						{
							OFFSET 0.000000 24.646606 12.978600
							CHANNELS 3 Xrotation Yrotation Zrotation
							End Site
							{
								OFFSET 0.000000 27.854965 0.000000
							}
						}
					}
				}
				JOINT LeftShoulder
				{
					OFFSET 16.952999 14.495407 -7.737500
					CHANNELS 3 Xrotation Yrotation Zrotation
					JOINT LeftArm
					{
						OFFSET 9.308998 -2.777710 0.208600
						CHANNELS 3 Xrotation Yrotation Zrotation
						JOINT LeftForeArm
						{
							OFFSET 29.972298 0.000000 0.000000
							CHANNELS 3 Xrotation Yrotation Zrotation
							JOINT LeftHand
							{
								OFFSET 26.026505 0.000000 0.000000
								CHANNELS 3 Xrotation Yrotation Zrotation
								JOINT LeftHandThumb1
								{
									OFFSET 12.240501 -7.147949 9.207150
									CHANNELS 3 Xrotation Yrotation Zrotation
									JOINT LeftHandThumb2
									{
										OFFSET 4.138618 -2.389435 2.389433
										CHANNELS 3 Xrotation Yrotation Zrotation
										JOINT LeftHandThumb3
										{
											OFFSET 2.726913 -1.574387 1.574386
											CHANNELS 3 Xrotation Yrotation Zrotation
											JOINT LeftHandThumb4
											{
												OFFSET 3.941010 -2.275345 2.275342
												CHANNELS 3 Xrotation Yrotation Zrotation
												End Site
												{
													OFFSET -0.005798 5.087799 0.009903
												}
											}
										}
									}
								}
								JOINT LeftHandIndex1
								{
									OFFSET 24.424698 -1.985611 5.953459
									CHANNELS 3 Xrotation Yrotation Zrotation
									JOINT LeftHandIndex2
									{
										OFFSET 6.426697 0.000000 0.000000
										CHANNELS 3 Xrotation Yrotation Zrotation
										JOINT LeftHandIndex3
										{
											OFFSET 5.337898 0.000000 0.000000
											CHANNELS 3 Xrotation Yrotation Zrotation
											JOINT LeftHandIndex4
											{
												OFFSET 4.409401 0.000000 0.000000
												CHANNELS 3 Xrotation Yrotation Zrotation
												End Site
												{
													OFFSET 0.000000 4.409363 0.014373
												}
											}
										}
									}
								}
								JOINT LeftHandMiddle1
								{
									OFFSET 23.810104 0.000000 0.000000
									CHANNELS 3 Xrotation Yrotation Zrotation
									JOINT LeftHandMiddle2
									{
										OFFSET 7.176498 0.000000 0.000000
										CHANNELS 3 Xrotation Yrotation Zrotation
										JOINT LeftHandMiddle3
										{
											OFFSET 6.774902 0.000000 0.000000
											CHANNELS 3 Xrotation Yrotation Zrotation
											JOINT LeftHandMiddle4
											{
												OFFSET 5.403328 0.000000 0.000000
												CHANNELS 3 Xrotation Yrotation Zrotation
												End Site
												{
													OFFSET -0.027702 5.403244 0.017414
												}
											}
										}
									}
								}
								JOINT LeftHandRing1
								{
									OFFSET 22.908401 -0.839279 -6.020567
									CHANNELS 3 Xrotation Yrotation Zrotation
									JOINT LeftHandRing2
									{
										OFFSET 6.337502 0.000000 0.000000
										CHANNELS 3 Xrotation Yrotation Zrotation
										JOINT LeftHandRing3
										{
											OFFSET 5.779297 0.000000 0.000000
											CHANNELS 3 Xrotation Yrotation Zrotation
											JOINT LeftHandRing4
											{
												OFFSET 4.965698 0.000000 0.000000
												CHANNELS 3 Xrotation Yrotation Zrotation
												End Site
												{
													OFFSET 0.000000 4.965668 0.016186
												}
											}
										}
									}
								}
								JOINT LeftHandPinky1
								{
									OFFSET 20.037003 -1.530319 -10.950146
									CHANNELS 3 Xrotation Yrotation Zrotation
									JOINT LeftHandPinky2
									{
										OFFSET 5.254700 0.000000 0.000000
										CHANNELS 3 Xrotation Yrotation Zrotation
										JOINT LeftHandPinky3
										{
											OFFSET 4.810204 0.000000 0.000000
											CHANNELS 3 Xrotation Yrotation Zrotation
											JOINT LeftHandPinky4
											{
												OFFSET 3.647202 0.000000 0.000000
												CHANNELS 3 Xrotation Yrotation Zrotation
												End Site
												{
													OFFSET 0.000000 3.647186 0.011889
												}
											}
										}
									}
								}
							}
						}
					}
				}
				JOINT RightShoulder
				{
					OFFSET -15.141001 14.495407 -7.737500
					CHANNELS 3 Xrotation Yrotation Zrotation
					JOINT RightArm
					{
						OFFSET -9.308998 -2.777710 0.208500
						CHANNELS 3 Xrotation Yrotation Zrotation
						JOINT RightForeArm
						{
							OFFSET -29.972300 0.000000 0.000000
							CHANNELS 3 Xrotation Yrotation Zrotation
							JOINT RightHand
							{
								OFFSET -26.026505 0.000000 0.000000
								CHANNELS 3 Xrotation Yrotation Zrotation
								JOINT RightHandThumb1
								{
									OFFSET -12.240601 -7.148026 9.207092
									CHANNELS 3 Xrotation Yrotation Zrotation
									JOINT RightHandThumb2
									{
										OFFSET -4.138618 -2.389435 2.389433
										CHANNELS 3 Xrotation Yrotation Zrotation
										JOINT RightHandThumb3
										{
											OFFSET -2.726974 -1.574417 1.574421
											CHANNELS 3 Xrotation Yrotation Zrotation
											JOINT RightHandThumb4
											{
												OFFSET -3.941010 -2.275345 2.275343
												CHANNELS 3 Xrotation Yrotation Zrotation
												End Site
												{
													OFFSET 0.005814 5.087799 0.009927
												}
											}
										}
									}
								}
								JOINT RightHandIndex1
								{
									OFFSET -24.424698 -1.985657 5.953444
									CHANNELS 3 Xrotation Yrotation Zrotation
									JOINT RightHandIndex2
									{
										OFFSET -6.426697 0.000000 0.000000
										CHANNELS 3 Xrotation Yrotation Zrotation
										JOINT RightHandIndex3
										{
											OFFSET -5.337898 0.000000 0.000000
											CHANNELS 3 Xrotation Yrotation Zrotation
											JOINT RightHandIndex4
											{
												OFFSET -4.409401 0.000000 0.000000
												CHANNELS 3 Xrotation Yrotation Zrotation
												End Site
												{
													OFFSET 0.000000 4.409363 0.014408
												}
											}
										}
									}
								}
								JOINT RightHandMiddle1
								{
									OFFSET -23.810097 0.000000 0.000000
									CHANNELS 3 Xrotation Yrotation Zrotation
									JOINT RightHandMiddle2
									{
										OFFSET -7.176498 0.000000 0.000000
										CHANNELS 3 Xrotation Yrotation Zrotation
										JOINT RightHandMiddle3
										{
											OFFSET -6.774902 0.000000 0.000000
											CHANNELS 3 Xrotation Yrotation Zrotation
											JOINT RightHandMiddle4
											{
												OFFSET -5.403328 0.000000 0.000000
												CHANNELS 3 Xrotation Yrotation Zrotation
												End Site
												{
													OFFSET 0.027702 5.403244 0.017457
												}
											}
										}
									}
								}
								JOINT RightHandRing1
								{
									OFFSET -22.908302 -0.839325 -6.020576
									CHANNELS 3 Xrotation Yrotation Zrotation
									JOINT RightHandRing2
									{
										OFFSET -6.337502 0.000000 0.000000
										CHANNELS 3 Xrotation Yrotation Zrotation
										JOINT RightHandRing3
										{
											OFFSET -5.779297 0.000000 0.000000
											CHANNELS 3 Xrotation Yrotation Zrotation
											JOINT RightHandRing4
											{
												OFFSET -4.965698 0.000000 0.000000
												CHANNELS 3 Xrotation Yrotation Zrotation
												End Site
												{
													OFFSET 0.000000 4.965668 0.016226
												}
											}
										}
									}
								}
								JOINT RightHandPinky1
								{
									OFFSET -20.037003 -1.530334 -10.950259
									CHANNELS 3 Xrotation Yrotation Zrotation
									JOINT RightHandPinky2
									{
										OFFSET -5.254700 0.000000 0.000000
										CHANNELS 3 Xrotation Yrotation Zrotation
										JOINT RightHandPinky3
										{
											OFFSET -4.810204 0.000000 0.000000
											CHANNELS 3 Xrotation Yrotation Zrotation
											JOINT RightHandPinky4
											{
												OFFSET -3.647202 0.000000 0.000000
												CHANNELS 3 Xrotation Yrotation Zrotation
												End Site
												{
													OFFSET 0.000000 3.647186 0.011917
												}
											}
										}
									}
								}
							}
						}
					}
				}
			}
		}
	}
	JOINT LeftUpLeg
	{
		OFFSET 15.427100 -6.655098 0.678600
		CHANNELS 3 Xrotation Yrotation Zrotation
		JOINT LeftLeg
		{
			OFFSET 4.081073 -39.591068 13.024000
			CHANNELS 3 Xrotation Yrotation Zrotation
			JOINT LeftFoot
			{
				OFFSET -4.081074 -37.707932 -15.979700
				CHANNELS 3 Xrotation Yrotation Zrotation
				JOINT LeftToeBase
				{
					OFFSET 5.346399 -15.068900 20.645000
					CHANNELS 3 Xrotation Yrotation Zrotation
					JOINT LeftToe_End
					{
						OFFSET 2.754700 0.931300 11.300900
						CHANNELS 3 Xrotation Yrotation Zrotation
						End Site
						{
							OFFSET 0.000000 11.669021 0.000000
						}
					}
				}
			}
		}
	}
	JOINT RightUpLeg
	{
		OFFSET -15.569500 -6.655098 0.678600
		CHANNELS 3 Xrotation Yrotation Zrotation
		JOINT RightLeg
		{
			OFFSET -4.081825 -39.591045 13.023800
			CHANNELS 3 Xrotation Yrotation Zrotation
			JOINT RightFoot
			{
				OFFSET 4.081824 -37.707954 -15.979600
				CHANNELS 3 Xrotation Yrotation Zrotation
				JOINT RightToeBase
				{
					OFFSET -5.346400 -15.068900 20.645000
					CHANNELS 3 Xrotation Yrotation Zrotation
					JOINT RightToe_End
					{
						OFFSET -2.754700 0.931300 11.300900
						CHANNELS 3 Xrotation Yrotation Zrotation
						End Site
						{
							OFFSET 0.000000 11.669021 0.000000
						}
					}
				}
			}
		}
	}
}
MOTION
Frames: 5
Frame Time: 0.033333
4.884129 94.243805 -2.965041 -3.847058 21.103989 -4.710932 -1.484236 2.239909 0.439491 -0.148905 2.414975 5.265935 -0.154428 2.937042 5.179840 8.154207 -1.017782 -3.659658 1.822573 2.364664 -15.621722 -0.000000 0.000001 -0.000000 1.205110 -10.987667 -0.947453 -25.658398 -28.013362 -55.114282 0.000019 -133.516811 0.000017 -50.294528 3.290650 0.828956 -1.618136 -15.441944 40.732192 -5.641337 14.109428 -5.162922 -10.639988 -1.520116 1.603303 -0.000002 -0.000003 -0.000002 -5.176527 -12.922046 -23.746242 1.017893 4.039674 -34.189096 0.034634 0.816838 -10.169826 -0.000002 0.000000 -0.000001 -4.298325 -0.198722 -32.705210 1.593520 4.857607 -44.434923 0.443796 2.315010 -20.986014 -0.000001 -0.000003 0.000001 -1.741910 5.766171 -47.706553 3.848996 5.192652 -65.575308 0.712495 2.166876 -23.093983 0.000000 -0.000000 -0.000000 2.850296 15.751311 -69.441092 4.830545 5.995129 -85.825855 2.754659 5.413290 -55.115593 0.000000 0.000000 0.000001 10.721391 18.277904 -32.635177 -38.901930 30.661938 2.182202 -0.000001 17.867942 0.000001 25.351574 54.964902 -4.217976 22.278837 -0.570049 -4.672979 1.665558 -34.182389 10.523780 1.149049 -10.192365 8.081976 -0.000002 -0.000002 -0.000001 -2.220606 0.388054 24.849512 0.896012 -3.852989 31.975739 -0.037826 -1.371562 25.015896 0.000002 -0.000000 -0.000001 -1.934280 -3.675336 32.666189 1.621864 -4.887334 44.847405 0.626819 -2.726156 27.075609 0.000001 0.000001 -0.000002 -0.600296 -6.533470 43.561929 2.605807 -4.595155 51.690575 0.053556 -1.085751 28.935789 -0.000002 -0.000002 0.000001 -0.067864 -12.851193 52.734907 2.203966 -4.859896 56.992891 -0.653089 -1.502482 33.232914 -0.000001 -0.000001 0.000000 -20.958476 9.677272 11.862331 21.882917 5.440876 2.892752 0.486779 -10.033983 -3.739498 -1.322577 -0.000014 0.000002 0.000000 -0.000000 0.000000 4.270601 -6.343099 10.782856 12.011080 -8.100342 0.714677 -13.422753 -13.786370 -3.744505 -0.538968 0.000006 0.000002 0.000000 0.000001 0.000000 
4.874042 94.360352 -2.836105 -3.773275 20.304861 -4.911839 -1.524608 2.009943 0.446876 -0.196469 2.295332 5.252795 -0.202561 2.817572 5.167569 8.474325 -0.927156 -3.639318 1.440002 2.667987 -15.356337 -0.000000 0.000001 0.000001 1.156431 -10.647224 -0.710604 -25.558380 -28.915923 -53.794894 -0.000008 -132.825459 0.000007 -49.417361 2.071653 1.964178 -1.618393 -15.442226 40.732595 -5.641440 14.109170 -5.162955 -10.640097 -1.520287 1.603282 0.000001 -0.000001 0.000001 -5.176677 -12.922282 -23.746503 1.017916 4.039686 -34.189284 0.034640 0.816836 -10.169812 -0.000003 0.000000 -0.000000 -4.298458 -0.198815 -32.705480 1.593528 4.857608 -44.435093 0.443761 2.315052 -20.986120 -0.000001 -0.000002 0.000003 -1.742010 5.766110 -47.706843 3.849020 5.192683 -65.575710 0.712504 2.166861 -23.094043 -0.000000 0.000000 0.000000 2.850242 15.751335 -69.441550 4.830607 5.995143 -85.826491 2.754706 5.413309 -55.116099 -0.000002 0.000001 -0.000000 11.072579 17.724363 -33.746585 -40.637939 28.964548 2.404030 0.000005 16.542397 -0.000007 36.250105 55.160440 -17.740045 22.600527 -0.636990 -4.147307 1.707608 -34.298720 11.152584 1.086682 -10.343720 8.666118 -0.000001 -0.000003 0.000001 -2.195165 1.428108 21.647354 0.778980 -3.657436 29.713888 -0.087607 -1.139505 22.743972 0.000001 0.000000 0.000001 -2.095164 -2.714415 29.442070 1.468316 -4.720984 42.574751 0.526937 -2.521692 24.797837 0.000002 -0.000003 0.000000 -0.973126 -5.730078 40.293014 2.416429 -4.468606 49.403940 -0.007380 -0.860070 26.659943 0.000000 0.000000 -0.000000 -0.405589 -11.815192 49.453513 2.028325 -4.718134 54.743208 -0.688197 -1.247058 30.957245 -0.000001 -0.000001 -0.000000 -20.742979 9.836215 12.305317 21.773320 5.392232 2.750367 0.321045 -9.451153 -3.901241 -1.751785 -0.000003 -0.000001 -0.000000 -0.000001 -0.000000 4.471241 -6.230120 10.804313 11.513361 -8.064474 0.918394 -13.132874 -13.035458 -3.848890 -0.538968 0.000007 0.000002 -0.000000 0.000000 -0.000000 
4.859997 94.466194 -2.735019 -3.694923 19.434642 -5.096631 -1.563998 1.790009 0.441863 -0.236407 2.163690 5.247153 -0.243034 2.686024 5.162648 8.625845 -0.818882 -3.651065 0.954453 3.004469 -15.237997 -0.000001 0.000002 -0.000000 1.140991 -10.240832 -0.312214 -25.723558 -29.573633 -52.298226 0.000016 -132.290983 0.000021 -48.861940 0.902184 3.120336 -1.618574 -15.442440 40.732864 -5.641497 14.108988 -5.163005 -10.640146 -1.520418 1.603277 0.000001 0.000004 0.000003 -5.176790 -12.922440 -23.746683 1.017925 4.039687 -34.189420 0.034631 0.816835 -10.169816 0.000002 -0.000001 -0.000000 -4.298542 -0.198906 -32.705664 1.593538 4.857622 -44.435206 0.443787 2.315041 -20.986217 0.000002 -0.000004 0.000000 -1.742095 5.766066 -47.707055 3.849027 5.192697 -65.575950 0.712510 2.166869 -23.094077 0.000000 0.000001 0.000000 2.850199 15.751355 -69.441898 4.830647 5.995150 -85.826880 2.754731 5.413333 -55.116454 0.000001 0.000000 0.000001 11.357040 17.143876 -34.763904 -41.922024 27.414093 2.459270 0.000001 15.495020 0.000000 45.319716 53.664182 -29.488440 22.889238 -0.693088 -3.675334 1.745813 -34.400528 11.717696 1.031625 -10.478289 9.190825 0.000002 0.000002 0.000002 -2.039155 2.446355 18.266742 0.663053 -3.444440 27.307793 -0.130375 -0.890895 20.329553 -0.000001 0.000001 -0.000000 -2.131536 -1.766289 26.048139 1.312307 -4.537375 40.156393 0.429708 -2.300151 22.376646 -0.000001 0.000000 -0.000001 -1.235118 -4.920995 36.858826 2.220543 -4.325642 46.969579 -0.062315 -0.617558 24.239401 0.000003 0.000002 0.000000 -0.583408 -10.784131 46.028672 1.847303 -4.559505 52.344644 -0.714351 -0.973834 28.534942 -0.000001 0.000003 0.000000 -20.534598 10.000807 12.728740 21.670467 5.357435 2.614047 0.161425 -8.808039 -4.069776 -2.071836 0.000003 0.000000 -0.000000 -0.000002 -0.000000 4.601971 -6.167959 10.822020 11.059744 -7.751353 1.159186 -12.845035 -12.440606 -4.079426 -0.538968 0.000006 0.000002 0.000000 -0.000001 -0.000000 
4.847345 94.536530 -2.662118 -3.606703 18.499260 -5.254800 -1.605553 1.582969 0.428339 -0.267642 2.017983 5.245275 -0.274773 2.540377 5.161277 8.574245 -0.688803 -3.679849 0.311138 3.403174 -15.268140 0.000001 0.000001 0.000000 1.139278 -9.770868 0.242377 -26.228150 -29.960734 -50.743750 0.000024 -131.978393 0.000012 -48.642708 -0.136346 4.302722 -1.618533 -15.442387 40.732803 -5.641479 14.109004 -5.162982 -10.640136 -1.520397 1.603285 -0.000002 -0.000002 -0.000000 -5.176772 -12.922395 -23.746650 1.017921 4.039678 -34.189410 0.034622 0.816847 -10.169808 -0.000002 -0.000000 -0.000000 -4.298528 -0.198876 -32.705613 1.593550 4.857616 -44.435172 0.443782 2.315048 -20.986192 0.000000 0.000002 0.000004 -1.742076 5.766079 -47.707007 3.849042 5.192679 -65.575915 0.712495 2.166882 -23.094099 0.000000 0.000001 0.000000 2.850218 15.751355 -69.441843 4.830627 5.995151 -85.826791 2.754742 5.413322 -55.116393 -0.000001 0.000000 -0.000000 11.592302 16.542303 -35.719390 -42.705000 26.016510 2.298976 0.000007 14.722527 -0.000015 51.448233 51.398676 -38.233295 23.136409 -0.739384 -3.271756 1.779591 -34.487667 12.201273 0.985632 -10.594004 9.639244 -0.000001 0.000001 0.000002 -1.789066 3.366149 15.032314 0.560279 -3.235488 24.997546 -0.161572 -0.650777 18.012341 -0.000000 0.000000 -0.000000 -2.065382 -0.903141 22.810079 1.169939 -4.355013 37.834750 0.345324 -2.083789 20.053765 0.000001 0.000001 -0.000000 -1.389436 -4.167391 33.589955 2.038358 -4.180713 44.633411 -0.105315 -0.382897 21.917481 -0.000001 0.000001 0.000001 -0.621516 -9.848573 42.785504 1.679984 -4.400187 50.042805 -0.728613 -0.710968 26.212027 -0.000002 -0.000000 0.000002 -20.367532 10.161766 13.114686 21.633562 5.316990 2.484439 -0.016861 -8.080789 -4.238923 -2.181919 -0.000003 0.000001 0.000000 -0.000000 -0.000000 4.613210 -6.160403 10.818880 10.751379 -7.234437 1.408894 -12.601562 -11.950551 -4.377396 -0.538968 0.000007 0.000002 0.000000 0.000000 -0.000000 
4.840750 94.556366 -2.614553 -3.513899 17.495147 -5.376549 -1.651010 1.388971 0.411736 -0.290647 1.861355 5.241370 -0.298238 2.383758 5.157635 8.312201 -0.537705 -3.697390 -0.447358 3.878749 -15.412216 -0.000001 -0.000001 -0.000000 1.136754 -9.257139 0.939017 -26.986330 -30.107443 -49.244284 0.000000 -131.883453 0.000001 -48.734609 -1.024296 5.471163 -1.618421 -15.442284 40.732666 -5.641449 14.109116 -5.162983 -10.640111 -1.520305 1.603283 -0.000002 -0.000000 0.000000 -5.176692 -12.922323 -23.746548 1.017913 4.039691 -34.189328 0.034618 0.816842 -10.169820 -0.000003 -0.000001 0.000000 -4.298453 -0.198852 -32.705528 1.593528 4.857628 -44.435117 0.443791 2.315025 -20.986173 0.000001 0.000001 -0.000001 -1.742021 5.766094 -47.706901 3.849012 5.192689 -65.575765 0.712506 2.166881 -23.094068 0.000000 0.000001 0.000000 2.850246 15.751331 -69.441639 4.830610 5.995143 -85.826566 2.754699 5.413310 -55.116181 -0.000001 0.000000 0.000001 11.793562 15.905303 -36.645280 -43.016767 24.758450 1.947294 -0.000010 14.195816 -0.000000 54.777465 49.239360 -44.034137 23.332278 -0.777843 -2.953828 1.808803 -34.561119 12.582166 0.950961 -10.689111 9.991199 -0.000000 -0.000002 -0.000000 -1.508126 4.109722 12.283775 0.479526 -3.054506 23.032323 -0.180419 -0.445673 16.041527 0.000000 0.000001 -0.000002 -1.942366 -0.199486 20.067138 1.054894 -4.195589 35.862492 0.280597 -1.897506 18.081095 -0.000002 -0.000001 -0.000000 -1.458479 -3.538198 30.829968 1.888654 -4.052082 42.652605 -0.134295 -0.182715 19.949044 0.000000 -0.000000 -0.000000 -0.569558 -9.091167 40.061184 1.543556 -4.260282 48.096082 -0.732323 -0.488366 24.247745 -0.000001 -0.000000 -0.000002 -20.249001 10.312594 13.452771 21.699586 5.250240 2.358757 -0.233464 -7.237752 -4.404228 -2.089922 -0.000003 0.000002 0.000000 0.000000 0.000000 4.483333 -6.178519 10.768046 10.666765 -6.724612 1.618420 -12.428117 -11.400060 -4.622681 -0.538968 0.000007 0.000002 0.000000 0.000000 -0.000000 
